<svg id="Layer_1" data-name="Layer 1" xmlns="http://www.w3.org/2000/svg" viewBox="0 0 40 40"><defs><style>.cls-1{fill:#fff;}</style></defs><title>o</title><path class="cls-1" d="M24,43.5A19.5,19.5,0,1,1,43.5,24,19.53,19.53,0,0,1,24,43.5Zm0-31.82A12.32,12.32,0,1,0,36.32,24,12.34,12.34,0,0,0,24,11.68Z" transform="translate(-4 -4)"/><path d="M24,5A19,19,0,1,1,5,24,19,19,0,0,1,24,5m0,31.82A12.82,12.82,0,1,0,11.18,24,12.83,12.83,0,0,0,24,36.82M24,4A20,20,0,1,0,44,24,20,20,0,0,0,24,4Zm0,31.82A11.82,11.82,0,1,1,35.82,24,11.82,11.82,0,0,1,24,35.82Z" transform="translate(-4 -4)"/></svg>