<svg id="Layer_1" data-name="Layer 1" xmlns="http://www.w3.org/2000/svg" viewBox="0 0 37.62 37.62"><defs><style>.cls-1{fill:#fff;}</style></defs><title>x</title><polygon class="cls-1" points="0.71 31.21 13.11 18.81 0.71 6.41 6.41 0.71 18.81 13.11 31.21 0.71 36.91 6.41 24.51 18.81 36.91 31.21 31.21 36.91 18.81 24.51 6.41 36.91 0.71 31.21"/><path d="M36.4,6.6l5,5L29.7,23.29,29,24l.71.71L41.4,36.4l-5,5L24.71,29.7,24,29l-.71.71L11.6,41.4l-5-5L18.3,24.71,19,24l-.71-.71L6.6,11.6l5-5L23.29,18.3,24,19l.71-.71L36.4,6.6m0-1.41L24,17.59,11.6,5.19,5.19,11.6,17.59,24,5.19,36.4l6.41,6.41L24,30.41l12.4,12.4,6.41-6.41L30.41,24l12.4-12.4L36.4,5.19Z" transform="translate(-5.19 -5.19)"/></svg>